<?xml version="1.0" encoding="utf-8"?>
<!-- Generator: Adobe Illustrator 16.0.4, SVG Export Plug-In . SVG Version: 6.00 Build 0)  -->
<!DOCTYPE svg PUBLIC "-//W3C//DTD SVG 1.1//EN" "http://www.w3.org/Graphics/SVG/1.1/DTD/svg11.dtd">
<svg version="1.1" id="Layer_1" xmlns="http://www.w3.org/2000/svg" xmlns:xlink="http://www.w3.org/1999/xlink" x="0px" y="0px"
	 width="230px" height="32px" viewBox="0 0 260 62" enable-background="new 0 0 260 62" xml:space="preserve">
<g>
	<g>
		<g>
			<g>
				<path fill="#FFFFFF" d="M80.788,49.417c0,0.34-0.278,0.618-0.619,0.618h-2.18c-0.341,0-0.618-0.278-0.618-0.618V37.413
					c0-0.341-0.278-0.619-0.619-0.619h-2.296c-0.341,0-0.618-0.277-0.618-0.618v-1.471c0-0.341,0.277-0.618,0.618-0.618h9.248
					c0.341,0,0.618,0.277,0.618,0.618v1.471c0,0.341-0.277,0.618-0.618,0.618h-2.298c-0.34,0-0.618,0.278-0.618,0.619V49.417z"/>
			</g>
			<g>
				<path fill="#FFFFFF" d="M88.5,46.671c-0.341,0-0.729,0.257-0.863,0.569l-0.952,2.226c-0.134,0.313-0.521,0.569-0.862,0.569
					h-2.367c-0.341,0-0.512-0.257-0.381-0.571l6.359-15.23c0.131-0.312,0.516-0.57,0.856-0.57h1.414
					c0.341,0,0.724,0.258,0.852,0.573l6.183,15.227c0.128,0.315-0.045,0.572-0.386,0.572h-2.413c-0.341,0-0.723-0.259-0.849-0.574
					l-0.888-2.216c-0.126-0.315-0.508-0.574-0.849-0.574H88.5z M91.053,38.917c-0.121-0.317-0.353-0.313-0.46,0.009l-1.538,4.619
					c-0.108,0.323,0.082,0.588,0.423,0.588H92.4c0.341,0,0.521-0.261,0.399-0.579L91.053,38.917z"/>
			</g>
			<g>
				<path fill="#FFFFFF" d="M104.02,46.709c0,0.341,0.277,0.618,0.618,0.618h3.6c0.341,0,0.619,0.278,0.619,0.619v1.471
					c0,0.34-0.278,0.618-0.619,0.618h-7.015c-0.342,0-0.619-0.278-0.619-0.618V34.705c0-0.341,0.277-0.618,0.619-0.618h2.178
					c0.341,0,0.619,0.277,0.619,0.618V46.709z"/>
			</g>
			<g>
				<path fill="#FFFFFF" d="M114.568,36.794c-0.341,0-0.619,0.278-0.619,0.619v2.272c0,0.341,0.278,0.619,0.619,0.619h4.203
					c0.341,0,0.619,0.278,0.619,0.618v1.47c0,0.341-0.278,0.618-0.619,0.618h-4.203c-0.341,0-0.619,0.278-0.619,0.619v3.079
					c0,0.341,0.278,0.618,0.619,0.618h4.412c0.342,0,0.619,0.278,0.619,0.619v1.471c0,0.34-0.277,0.618-0.619,0.618h-7.829
					c-0.341,0-0.619-0.278-0.619-0.618V34.705c0-0.341,0.278-0.618,0.619-0.618h7.829c0.342,0,0.619,0.277,0.619,0.618v1.471
					c0,0.341-0.277,0.618-0.619,0.618H114.568z"/>
			</g>
			<g>
				<path fill="#FFFFFF" d="M122.462,34.282c0-0.341,0.278-0.619,0.619-0.619h1.229c0.341,0,0.796,0.216,1.013,0.477l8.439,10.194
					c0.216,0.263,0.44,0.198,0.44-0.143v-9.486c0-0.341,0.278-0.618,0.619-0.618h2.181c0.341,0,0.619,0.277,0.619,0.618v15.028
					c0,0.341-0.278,0.618-0.619,0.618h-1.228c-0.341,0-0.796-0.214-1.013-0.476l-8.441-10.195c-0.216-0.261-0.439-0.197-0.439,0.143
					v9.594c0,0.34-0.278,0.618-0.619,0.618h-2.181c-0.341,0-0.619-0.278-0.619-0.618V34.282z"/>
			</g>
			<g>
				<path fill="#FFFFFF" d="M146.39,49.417c0,0.34-0.278,0.618-0.619,0.618h-2.181c-0.341,0-0.619-0.278-0.619-0.618V37.413
					c0-0.341-0.277-0.619-0.618-0.619h-2.296c-0.341,0-0.619-0.277-0.619-0.618v-1.471c0-0.341,0.278-0.618,0.619-0.618h9.247
					c0.341,0,0.619,0.277,0.619,0.618v1.471c0,0.341-0.278,0.618-0.619,0.618h-2.296c-0.34,0-0.618,0.278-0.618,0.619V49.417z"/>
			</g>
		</g>
		<g>
			<g>
				<path fill="#FFFFFF" d="M162.258,46.671c-0.341,0-0.729,0.257-0.863,0.569l-0.954,2.226c-0.135,0.313-0.522,0.569-0.863,0.569
					h-2.366c-0.34,0-0.511-0.257-0.38-0.57l6.36-15.231c0.131-0.312,0.516-0.57,0.856-0.57h1.411c0.341,0,0.725,0.259,0.853,0.573
					l6.185,15.227c0.128,0.315-0.045,0.572-0.386,0.572h-2.413c-0.341,0-0.723-0.259-0.849-0.574l-0.89-2.216
					c-0.125-0.315-0.507-0.574-0.848-0.574H162.258z M164.811,38.917c-0.121-0.317-0.354-0.313-0.462,0.009l-1.538,4.619
					c-0.107,0.323,0.082,0.588,0.423,0.588h2.925c0.341,0,0.521-0.261,0.399-0.579L164.811,38.917z"/>
			</g>
			<g>
				<path fill="#FFFFFF" d="M188.293,41.553c0.341,0,0.607,0.364,0.607,0.712c0,3.988-2.743,8.193-7.961,8.193
					c-5.115,0-8.346-3.935-8.346-8.335c0-4.546,3.322-8.46,8.555-8.46c2.714,0,4.973,1.081,6.546,3.19
					c0.25,0.335,0.062,0.774-0.319,0.962s-1.604,0.775-1.604,0.775c-0.306,0.15-0.737,0.061-0.96-0.196c0,0-1.38-1.98-3.756-1.98
					c-3.301,0-4.93,3.065-4.93,5.709s1.653,5.585,4.952,5.585c1.918,0,3.553-1.358,3.924-3.027c0.042-0.193-0.14-0.591-0.623-0.591
					s-2.401,0-2.401,0c-0.341,0-0.619-0.277-0.619-0.618v-1.301c0-0.34,0.278-0.618,0.619-0.618H188.293z"/>
			</g>
			<g>
				<path fill="#FFFFFF" d="M195.231,36.794c-0.341,0-0.618,0.278-0.618,0.619v2.272c0,0.341,0.277,0.619,0.618,0.619h4.203
					c0.341,0,0.618,0.278,0.618,0.618v1.473c0,0.34-0.277,0.618-0.618,0.618h-4.203c-0.341,0-0.618,0.278-0.618,0.618v3.078
					c0,0.341,0.277,0.619,0.618,0.619h4.413c0.341,0,0.618,0.277,0.618,0.618v1.47c0,0.34-0.277,0.618-0.618,0.618h-7.831
					c-0.341,0-0.619-0.278-0.619-0.618V34.706c0-0.341,0.278-0.618,0.619-0.618h7.831c0.341,0,0.618,0.277,0.618,0.618v1.47
					c0,0.341-0.277,0.618-0.618,0.618H195.231z"/>
			</g>
			<g>
				<path fill="#FFFFFF" d="M203.126,34.282c0-0.341,0.277-0.619,0.618-0.619h1.227c0.341,0,0.797,0.216,1.013,0.477l8.441,10.194
					c0.218,0.263,0.406,0.477,0.418,0.477s0.022-0.278,0.022-0.619v-9.485c0-0.341,0.278-0.618,0.619-0.618h2.18
					c0.341,0,0.619,0.277,0.619,0.618v15.027c0,0.341-0.278,0.618-0.619,0.618h-1.227c-0.341,0-0.796-0.214-1.013-0.476
					l-8.441-10.195c-0.216-0.261-0.404-0.476-0.418-0.476c-0.012,0-0.022,0.278-0.022,0.618v9.594c0,0.34-0.278,0.618-0.619,0.618
					h-2.18c-0.341,0-0.618-0.278-0.618-0.618V34.282z"/>
			</g>
			<g>
				<path fill="#FFFFFF" d="M232.037,37.778c-0.912-0.731-2.092-1.154-3.286-1.154c-3.279,0-5.161,2.751-5.161,5.499
					c0,2.688,1.953,5.374,5.138,5.374c1.196,0,2.392-0.466,3.31-1.18c0.206-0.16,0.572-0.029,0.572,0.26s0,2.309,0,2.309
					c0,0.341-0.262,0.716-0.58,0.835c0,0-1.599,0.737-3.396,0.737c-4.929,0-8.578-3.871-8.578-8.271c0-4.526,3.51-8.524,8.647-8.524
					c1.746,0,3.324,0.719,3.324,0.719c0.32,0.117,0.582,0.49,0.582,0.831c0,0,0,2.085,0,2.316
					C232.609,37.76,232.243,37.942,232.037,37.778z"/>
			</g>
			<g>
				<path fill="#FFFFFF" d="M233.532,34.61c-0.182-0.287-0.052-0.522,0.289-0.522h2.737c0.341,0,0.754,0.244,0.919,0.541l2.47,4.458
					c0.164,0.297,0.443,0.303,0.62,0.012l2.708-4.481c0.176-0.292,0.598-0.529,0.938-0.529h2.762c0.341,0,0.47,0.234,0.285,0.521
					l-4.865,7.587c-0.184,0.286-0.334,0.799-0.334,1.14v6.082c0,0.34-0.277,0.618-0.618,0.618h-2.182
					c-0.341,0-0.618-0.278-0.618-0.618v-6.082c0-0.341-0.148-0.854-0.33-1.142L233.532,34.61z"/>
			</g>
		</g>
	</g>
	<g>
		<g>
			<g>
				<path fill="#FFFFFF" d="M79.957,15.168c-0.341,0-0.619,0.277-0.619,0.618v1.427c0,0.341,0.278,0.619,0.619,0.619h3.437
					c0.341,0,0.618,0.278,0.618,0.618v2.274c0,0.341-0.277,0.619-0.618,0.619h-3.437c-0.341,0-0.619,0.277-0.619,0.618v1.513
					c0,0.341,0.278,0.619,0.619,0.619h3.689c0.341,0,0.619,0.277,0.619,0.618v2.274c0,0.341-0.278,0.618-0.619,0.618h-7.838
					c-0.341,0-0.619-0.277-0.619-0.618v-14.71c0-0.341,0.278-0.619,0.619-0.619h7.838c0.341,0,0.619,0.278,0.619,0.619v2.272
					c0,0.341-0.278,0.619-0.619,0.619H79.957z"/>
			</g>
			<g>
				<path fill="#FFFFFF" d="M98.025,16.254c-0.812-0.656-1.853-1.002-2.915-1.002c-2.54,0-4.253,1.945-4.253,4.42
					c0,2.518,1.736,4.337,4.314,4.337c1.016,0,2.031-0.367,2.842-0.989c0.27-0.208,0.733-0.176,0.733,0.255c0,0.43,0,3.395,0,3.395
					c0,0.34-0.266,0.701-0.591,0.803c0,0-1.778,0.558-3.066,0.558c-2.223,0-4.338-0.848-5.987-2.35
					c-1.756-1.586-2.561-3.659-2.561-6.028c0-2.178,0.827-4.273,2.349-5.837c1.565-1.607,3.83-2.581,6.071-2.581
					c1.333,0,3.197,0.611,3.197,0.611c0.323,0.105,0.588,0.47,0.588,0.811c0,0,0,2.912,0,3.221
					C98.747,16.184,98.294,16.472,98.025,16.254z"/>
			</g>
			<g>
				<path fill="#FFFFFF" d="M111.342,17.812c0.341,0,0.619-0.278,0.619-0.619v-4.916c0-0.341,0.277-0.619,0.618-0.619h2.908
					c0.341,0,0.619,0.278,0.619,0.619v14.71c0,0.341-0.278,0.618-0.619,0.618h-2.908c-0.341,0-0.618-0.277-0.618-0.618v-5.299
					c0-0.341-0.278-0.618-0.619-0.618h-4.749c-0.341,0-0.618,0.277-0.618,0.618v5.299c0,0.341-0.278,0.618-0.619,0.618h-2.908
					c-0.341,0-0.618-0.277-0.618-0.618v-14.71c0-0.341,0.277-0.619,0.618-0.619h2.908c0.341,0,0.619,0.278,0.619,0.619v4.916
					c0,0.341,0.277,0.619,0.618,0.619H111.342z"/>
			</g>
			<g>
				<path fill="#FFFFFF" d="M135.324,19.334c0,5.161-3.701,8.8-8.821,8.8c-5.118,0-8.821-3.639-8.821-8.8
					c0-4.823,4.232-8.207,8.821-8.207C131.094,11.127,135.324,14.511,135.324,19.334z M121.997,19.355
					c0,2.75,2.031,4.759,4.506,4.759c2.474,0,4.506-2.009,4.506-4.759c0-2.199-2.032-4.21-4.506-4.21
					C124.028,15.146,121.997,17.156,121.997,19.355z"/>
			</g>
		</g>
		<g>
			<g>
				<path fill="#FFFFFF" d="M148.422,23.476c0,0.342,0.278,0.619,0.619,0.619h3.73c0.342,0,0.619,0.278,0.619,0.619v2.275
					c0,0.34-0.277,0.618-0.619,0.618h-7.879c-0.341,0-0.619-0.278-0.619-0.618V12.277c0-0.341,0.278-0.619,0.619-0.619h2.911
					c0.341,0,0.618,0.278,0.618,0.619V23.476z"/>
			</g>
			<g>
				<path fill="#FFFFFF" d="M172.105,19.336c0,5.16-3.701,8.8-8.82,8.8s-8.821-3.64-8.821-8.8c0-4.822,4.231-8.208,8.821-8.208
					S172.105,14.514,172.105,19.336z M158.778,19.356c0,2.752,2.032,4.76,4.507,4.76c2.474,0,4.505-2.008,4.505-4.76
					c0-2.199-2.031-4.207-4.505-4.207C160.811,15.149,158.778,17.157,158.778,19.356z"/>
			</g>
			<g>
				<path fill="#FFFFFF" d="M193.709,24.835c-0.341,0-0.722,0.259-0.847,0.576l-0.644,1.621c-0.125,0.316-0.506,0.575-0.847,0.575
					h-3.163c-0.341,0-0.519-0.26-0.396-0.577l5.689-14.794c0.123-0.317,0.501-0.578,0.842-0.578h3.29
					c0.341,0,0.717,0.262,0.836,0.579l5.57,14.791c0.121,0.318-0.059,0.579-0.399,0.579h-3.183c-0.341,0-0.717-0.261-0.835-0.58
					l-0.604-1.612c-0.12-0.318-0.495-0.58-0.836-0.58H193.709z M196.184,17.174c-0.107-0.323-0.327-0.324-0.436-0.002l-1.317,3.904
					c-0.109,0.323,0.079,0.586,0.42,0.586h2.212c0.341,0,0.53-0.265,0.423-0.587L196.184,17.174z"/>
			</g>
			<g>
				<path fill="#FFFFFF" d="M211.146,26.989c0,0.34-0.277,0.618-0.619,0.618h-2.908c-0.341,0-0.618-0.278-0.618-0.618V15.787
					c0-0.341-0.278-0.618-0.619-0.618h-2.189c-0.341,0-0.618-0.278-0.618-0.619v-2.272c0-0.341,0.277-0.619,0.618-0.619h9.763
					c0.34,0,0.618,0.278,0.618,0.619v2.272c0,0.341-0.278,0.619-0.618,0.619h-2.189c-0.341,0-0.619,0.277-0.619,0.618V26.989z"/>
			</g>
			<g>
				<path fill="#FFFFFF" d="M220.744,26.989c0,0.34-0.277,0.618-0.618,0.618h-2.91c-0.341,0-0.618-0.278-0.618-0.618V12.277
					c0-0.341,0.277-0.619,0.618-0.619h2.91c0.341,0,0.618,0.278,0.618,0.619V26.989z"/>
			</g>
			<g>
				<path fill="#FFFFFF" d="M240.811,19.336c0,5.16-3.7,8.8-8.818,8.8c-5.119,0-8.82-3.64-8.82-8.8c0-4.822,4.228-8.208,8.82-8.208
					C236.582,11.128,240.811,14.514,240.811,19.336z M227.485,19.356c0,2.752,2.031,4.76,4.507,4.76c2.475,0,4.504-2.008,4.504-4.76
					c0-2.199-2.029-4.207-4.504-4.207C229.517,15.149,227.485,17.157,227.485,19.356z"/>
			</g>
			<g>
				<path fill="#FFFFFF" d="M243.257,12.277c0-0.341,0.278-0.619,0.618-0.619h2.908c0.34,0,0.79,0.221,0.999,0.488l6.832,8.774
					c0.209,0.268,0.423,0.21,0.423-0.131v-8.513c0-0.341,0.277-0.619,0.618-0.619h2.908c0.341,0,0.619,0.278,0.619,0.619v14.712
					c0,0.34-0.278,0.618-0.619,0.618h-2.908c-0.341,0-0.789-0.22-0.998-0.488l-6.833-8.797c-0.209-0.268-0.423-0.21-0.423,0.131
					v8.536c0,0.34-0.278,0.618-0.618,0.618h-2.908c-0.34,0-0.618-0.278-0.618-0.618V12.277z"/>
			</g>
			<path fill="#FFFFFF" d="M185.228,16.254c-0.811-0.656-1.853-1.002-2.914-1.002c-2.54,0-4.254,1.945-4.254,4.42
				c0,2.518,1.737,4.337,4.315,4.337c1.015,0,2.031-0.367,2.842-0.989c0.27-0.208,0.733-0.176,0.733,0.255c0,0.43,0,3.395,0,3.395
				c0,0.34-0.266,0.701-0.591,0.803c0,0-1.778,0.558-3.066,0.558c-2.223,0-4.338-0.848-5.987-2.35
				c-1.756-1.586-2.561-3.659-2.561-6.028c0-2.178,0.826-4.273,2.349-5.837c1.565-1.607,3.829-2.581,6.071-2.581
				c1.332,0,3.197,0.611,3.197,0.611c0.323,0.105,0.588,0.47,0.588,0.811c0,0,0,2.912,0,3.221
				C185.95,16.184,185.497,16.472,185.228,16.254z"/>
		</g>
	</g>
</g>
<path fill="#FFFFFF" d="M60.394,2.649c0.761,0,1.378-0.617,1.378-1.378c0-0.762-0.617-1.378-1.378-1.378
	c-5.34,0-10.368,1.363-14.753,3.759c-4.388-2.396-9.415-3.759-14.755-3.759C13.855-0.106,0,13.749,0,30.779
	s13.855,30.886,30.886,30.886c5.34,0,10.367-1.363,14.755-3.759c4.386,2.396,9.413,3.759,14.753,3.759
	c0.761,0,1.378-0.616,1.378-1.378c0-0.761-0.617-1.378-1.378-1.378c-4.294,0-8.365-0.971-12.009-2.698
	c1.062-0.733,2.074-1.529,3.033-2.386c2.785,1.089,5.811,1.692,8.976,1.692c0.761,0,1.378-0.617,1.378-1.378
	s-0.617-1.378-1.378-1.378c-2.37,0-4.649-0.387-6.79-1.085c0.761-0.826,1.478-1.695,2.146-2.601
	c1.362,0.315,2.776,0.498,4.233,0.498c0.761,0,1.378-0.616,1.378-1.377c0-0.762-0.617-1.378-1.378-1.378
	c-0.88,0-1.737-0.091-2.58-0.228c0.542-0.906,1.038-1.844,1.487-2.807c0.361,0.028,0.724,0.053,1.091,0.053h0.002
	c0.761,0,1.378-0.617,1.378-1.378c0-0.756-0.61-1.367-1.364-1.375c1.146-3.225,1.774-6.692,1.774-10.305s-0.629-7.079-1.774-10.306
	c0.754-0.008,1.364-0.619,1.364-1.375c0-0.761-0.617-1.377-1.378-1.377c-0.369,0-0.73,0.024-1.093,0.055
	c-0.449-0.966-0.945-1.904-1.489-2.812c0.847-0.137,1.706-0.225,2.58-0.225c0,0,0.001,0,0.002,0c0.761,0,1.378-0.616,1.378-1.377
	c0-0.762-0.617-1.379-1.378-1.379c-0.001,0-0.001,0-0.001,0c-1.445,0-2.861,0.181-4.234,0.496c-0.669-0.904-1.384-1.772-2.145-2.598
	c2.141-0.697,4.42-1.085,6.79-1.085c0.761,0,1.378-0.617,1.378-1.378s-0.617-1.378-1.378-1.378c-3.165,0-6.189,0.604-8.974,1.692
	c-0.961-0.857-1.975-1.653-3.036-2.387C52.028,3.62,56.099,2.649,60.394,2.649z M30.886,58.909c-15.512,0-28.13-12.618-28.13-28.13
	s12.618-28.13,28.13-28.13c4.294,0,8.364,0.971,12.01,2.698c-1.062,0.733-2.075,1.529-3.036,2.387
	c-2.783-1.089-5.809-1.692-8.974-1.692c-13.641,0-24.738,11.097-24.738,24.737s11.098,24.738,24.738,24.738
	c3.166,0,6.19-0.604,8.976-1.692c0.96,0.856,1.973,1.652,3.034,2.386C39.25,57.938,35.18,58.909,30.886,58.909z M47.664,16.608
	c-0.33,0.286-0.66,0.569-0.971,0.88c-0.448,0.448-0.87,0.915-1.268,1.399c-0.608-0.743-1.285-1.426-2-2.068
	c0.678-0.82,1.428-1.573,2.215-2.288C46.355,15.183,47.038,15.869,47.664,16.608z M45.641,47.028
	c-0.787-0.715-1.539-1.468-2.215-2.289c0.718-0.645,1.397-1.331,2.009-2.079c0.676,0.826,1.43,1.584,2.234,2.285
	C47.042,45.687,46.358,46.376,45.641,47.028z M40.414,50.559c-0.775-0.782-1.5-1.613-2.18-2.482
	c1.062-0.453,2.072-1.005,3.024-1.637c0.681,0.83,1.417,1.611,2.198,2.347C42.497,49.459,41.478,50.045,40.414,50.559z
	 M43.78,21.281c-0.595,1.011-1.089,2.069-1.481,3.171c-0.538-0.966-1.198-1.851-1.952-2.646c0.426-0.949,0.92-1.858,1.472-2.73
	C42.538,19.749,43.193,20.486,43.78,21.281z M46.926,30.78c0,2.397-0.544,4.665-1.491,6.711c-0.947-2.046-1.491-4.313-1.491-6.711
	c0-2.361,0.524-4.638,1.486-6.72C46.38,26.107,46.926,28.379,46.926,30.78z M41.818,42.483c-0.551-0.872-1.046-1.78-1.472-2.729
	c0.758-0.799,1.419-1.688,1.958-2.656c0.397,1.109,0.893,2.169,1.482,3.171C43.199,41.066,42.541,41.808,41.818,42.483z
	 M38.411,30.779c0-2.074,0.308-4.074,0.848-5.979c1.209,1.688,1.929,3.749,1.929,5.979s-0.72,4.291-1.929,5.979
	C38.719,34.854,38.411,32.854,38.411,30.779z M36.23,25.49c-0.839-0.849-1.879-1.497-3.04-1.872c0.236-0.9,0.518-1.783,0.839-2.646
	c1.107,0.356,2.128,0.9,3.036,1.586C36.729,23.509,36.449,24.488,36.23,25.49z M29.858,35.431c-2.137-0.472-3.742-2.375-3.742-4.651
	s1.605-4.18,3.742-4.651c-0.23,1.517-0.351,3.07-0.351,4.651S29.628,33.914,29.858,35.431z M32.264,30.779
	c0-1.508,0.122-2.988,0.352-4.433c1.775,0.695,3.04,2.414,3.04,4.433s-1.265,3.737-3.04,4.433
	C32.386,33.768,32.264,32.287,32.264,30.779z M30.434,23.276c-3.938,0.236-7.073,3.506-7.073,7.503s3.135,7.267,7.073,7.503
	c0.238,0.944,0.52,1.872,0.842,2.781c-0.131,0.004-0.259,0.02-0.39,0.02c-5.682-0.001-10.304-4.623-10.304-10.304
	s4.622-10.303,10.304-10.303c0.131,0,0.259,0.016,0.389,0.02C30.952,21.404,30.67,22.332,30.434,23.276z M33.19,37.94
	c1.161-0.375,2.201-1.023,3.04-1.872c0.219,1.003,0.499,1.982,0.836,2.935c-0.909,0.685-1.929,1.229-3.035,1.585
	C33.709,39.725,33.427,38.842,33.19,37.94z M38.161,41.618c0.438,0.895,0.933,1.758,1.472,2.589
	c-0.947,0.618-1.966,1.133-3.038,1.543c-0.535-0.848-1.03-1.725-1.474-2.631C36.204,42.747,37.228,42.246,38.161,41.618z
	 M38.161,19.943c-0.935-0.629-1.958-1.13-3.041-1.503c0.444-0.906,0.939-1.782,1.475-2.632c1.072,0.41,2.091,0.925,3.038,1.543
	C39.094,18.184,38.6,19.047,38.161,19.943z M32.372,17.812c-0.488-0.056-0.983-0.092-1.486-0.092c-7.201,0-13.06,5.858-13.06,13.059
	c0,7.199,5.858,13.059,13.06,13.06c0.504,0,0.998-0.036,1.486-0.092c0.444,0.957,0.935,1.887,1.471,2.787
	c-0.96,0.18-1.946,0.285-2.957,0.285c-4.284,0-8.312-1.669-11.343-4.698c-3.029-3.029-4.697-7.058-4.697-11.342
	c0-8.844,7.196-16.04,16.04-16.04c1.011,0,1.997,0.105,2.957,0.285C33.307,15.925,32.816,16.855,32.372,17.812z M30.886,11.984
	c-10.364,0-18.796,8.432-18.796,18.795c-0.001,5.021,1.955,9.74,5.505,13.291c3.55,3.55,8.271,5.504,13.291,5.504
	c1.582,0,3.112-0.218,4.581-0.587c0.687,0.938,1.423,1.836,2.209,2.689c-2.141,0.698-4.42,1.085-6.79,1.085
	c-12.122,0-21.983-9.861-21.983-21.982S18.764,8.798,30.886,8.798c2.37,0,4.649,0.388,6.789,1.085
	c-0.785,0.854-1.521,1.751-2.208,2.688C33.998,12.202,32.468,11.984,30.886,11.984z M47.081,40.27c0.589-1,1.084-2.058,1.481-3.165
	c0.585,1.053,1.312,2.033,2.188,2.908c0.013,0.013,0.027,0.023,0.04,0.037c-0.433,0.927-0.922,1.822-1.475,2.674
	C48.488,41.983,47.741,41.164,47.081,40.27z M49.681,30.78c0-2.412,0.84-4.63,2.235-6.388c0.615,2.023,0.952,4.166,0.952,6.387
	c0,2.225-0.338,4.37-0.956,6.396C50.469,35.361,49.681,33.133,49.681,30.78z M55.054,36.049c0.835,0.848,1.864,1.498,3.041,1.875
	c-0.249,0.945-0.547,1.869-0.89,2.772c-1.098-0.306-2.135-0.79-3.076-1.444C54.508,38.215,54.814,37.145,55.054,36.049z
	 M59.016,30.78c0,1.512-0.123,2.993-0.354,4.44c-1.803-0.699-3.038-2.441-3.038-4.441c0-1.984,1.239-3.739,3.038-4.442
	C58.892,27.785,59.016,29.268,59.016,30.78z M58.096,23.641c-1.174,0.379-2.205,1.027-3.04,1.879
	c-0.239-1.098-0.546-2.169-0.925-3.207c0.927-0.643,1.965-1.132,3.076-1.443C57.549,21.771,57.847,22.695,58.096,23.641z
	 M48.564,24.461c-0.399-1.112-0.896-2.175-1.487-3.179c0.477-0.644,0.988-1.269,1.565-1.845c0.214-0.215,0.444-0.406,0.668-0.607
	c0.558,0.855,1.048,1.754,1.482,2.686C49.918,22.385,49.168,23.376,48.564,24.461z M41.259,15.12
	c-0.952-0.633-1.962-1.185-3.024-1.638c0.68-0.869,1.404-1.7,2.18-2.482c1.062,0.515,2.083,1.102,3.043,1.772
	C42.676,13.508,41.939,14.289,41.259,15.12z M45.641,54.717c-1.059-0.654-2.071-1.376-3.029-2.16
	c1.057-0.572,2.069-1.219,3.029-1.934c0.957,0.715,1.97,1.361,3.028,1.934C47.71,53.341,46.697,54.062,45.641,54.717z
	 M50.865,50.559c-1.063-0.514-2.084-1.1-3.043-1.772c0.729-0.687,1.418-1.413,2.061-2.183c0.967,0.62,1.991,1.156,3.068,1.594
	C52.298,49.021,51.604,49.812,50.865,50.559z M54.605,45.872c-1.084-0.388-2.111-0.886-3.074-1.485
	c0.545-0.825,1.04-1.683,1.484-2.572c0.963,0.61,1.994,1.096,3.076,1.434C55.645,44.15,55.146,45.025,54.605,45.872z M56.094,18.314
	c-1.096,0.342-2.122,0.836-3.072,1.438c-0.448-0.895-0.946-1.759-1.495-2.587c0.972-0.607,2.001-1.102,3.076-1.483
	C55.144,16.529,55.644,17.408,56.094,18.314z M52.94,13.351c-1.067,0.431-2.092,0.968-3.066,1.594
	c-0.64-0.766-1.326-1.488-2.052-2.172c0.96-0.671,1.979-1.258,3.043-1.771C51.601,11.744,52.291,12.529,52.94,13.351z M48.669,9.002
	c-1.058,0.573-2.071,1.22-3.028,1.934c-0.96-0.715-1.973-1.36-3.03-1.934c0.959-0.784,1.971-1.506,3.028-2.16
	C46.697,7.496,47.71,8.218,48.669,9.002z"/>
</svg>
