<?xml version="1.0" encoding="utf-8"?>
<!-- Generator: Adobe Illustrator 16.0.4, SVG Export Plug-In . SVG Version: 6.00 Build 0)  -->
<!DOCTYPE svg PUBLIC "-//W3C//DTD SVG 1.1//EN" "http://www.w3.org/Graphics/SVG/1.1/DTD/svg11.dtd">
<svg version="1.1" id="Layer_1" xmlns="http://www.w3.org/2000/svg" xmlns:xlink="http://www.w3.org/1999/xlink" x="0px" y="0px"
	 width="14px" height="120px" viewBox="0 0 14 120" enable-background="new 0 0 14 120" xml:space="preserve">
<rect x="-26" y="-7" display="none" fill="#AE4E00" width="77" height="160"/>
<polygon display="none" fill="#2E3192" points="0,105 14,105 14,119 0,119 0,119 "/>
<path fill="#FFFDFD" d="M12.247,40.487c-0.847-0.432-2.101-1.537-3.958-1.919c0.475-0.583,0.835-1.49,1.204-2.569
	c0.214-0.624,0.178-1.156,0.178-1.915c0-0.562,0.093-1.46-0.03-1.952C9.232,30.461,8.195,30,6.982,30s-2.25,0.463-2.659,2.136
	c-0.121,0.493-0.027,1.391-0.027,1.948c0,0.76-0.037,1.294,0.18,1.919c0.373,1.084,0.728,1.994,1.199,2.573
	c-1.843,0.388-3.088,1.485-3.928,1.916C0.008,41.378,0,42.351,0,42.351V44l14-0.001v-1.647C14,42.352,13.992,41.376,12.247,40.487z"
	/>
<polygon fill="#FFFFFF" points="7,56.057 2.674,59 4,53.764 0,50.348 5.146,50.057 7,45 8.854,50.057 14,50.348 10,53.764 
	11.326,59 "/>
<path fill="#FFFFFF" d="M0.484,63.014C0.218,63.014,0,63.232,0,63.499v9.018c0,0.268,0.218,0.482,0.484,0.482h13.029
	c0.268,0,0.484-0.217,0.484-0.482v-9.03c0-0.269-0.219-0.485-0.484-0.485c0,0-4.516,0-5.516,0c0-1,0-2-1-2h-4c-1,0-1,1-1,2
	L0.484,63.014z M5,70.999c-1.656,0-3-1.341-3-3c0-1.656,1.344-3,3-3c1.657,0,3,1.344,3,3C8,69.657,6.657,70.999,5,70.999z
	 M12,66.999h-2v-2h2V66.999z"/>
<path fill="#FFFDFD" d="M7,16l-7,7l6,6l7-7v-6H7z M10,20.459c-0.807,0-1.459-0.652-1.459-1.459c0-0.808,0.652-1.459,1.459-1.459
	s1.459,0.651,1.459,1.459C11.459,19.807,10.807,20.459,10,20.459z"/>
<path fill="#FFFFFF" d="M13.346,3.472c-0.137-0.232-0.455-0.342-0.705-0.237l-1.295,0.537c-0.25,0.102-0.578,0.052-0.726-0.121
	c-0.147-0.164-0.5-0.748-0.396-1.003l0.532-1.293c0.104-0.247-0.007-0.56-0.247-0.684L8.986,0.038
	c-0.26-0.084-0.555,0.057-0.658,0.31L7.795,1.642C7.689,1.89,7.422,2.086,7.201,2.071C6.979,2.056,6.31,1.89,6.202,1.642
	L5.665,0.348C5.562,0.097,5.263-0.052,5,0.017c0,0-0.37,0.096-0.783,0.271C3.8,0.457,3.472,0.652,3.472,0.652
	C3.234,0.786,3.126,1.108,3.234,1.359l0.533,1.294C3.872,2.901,3.823,3.228,3.65,3.378C3.484,3.524,2.896,3.875,2.648,3.774
	L1.354,3.237C1.104,3.137,0.794,3.248,0.67,3.485L0.038,5.009c-0.081,0.259,0.061,0.56,0.311,0.66l1.297,0.533
	c0.25,0.104,0.443,0.371,0.429,0.594C2.06,7.018,1.892,7.688,1.642,7.793L0.347,8.331c-0.25,0.098-0.397,0.403-0.33,0.668
	c0,0,0.098,0.366,0.271,0.783c0.168,0.419,0.364,0.747,0.364,0.747c0.134,0.234,0.455,0.345,0.705,0.235l1.295-0.536
	c0.248-0.101,0.574-0.054,0.723,0.114c0.146,0.17,0.499,0.756,0.398,1.008L3.24,12.645c-0.105,0.247,0.008,0.562,0.242,0.684
	l1.524,0.635c0.259,0.084,0.56-0.055,0.66-0.312l0.536-1.294c0.104-0.246,0.368-0.442,0.591-0.429
	c0.222,0.02,0.894,0.183,0.999,0.433l0.534,1.292c0.104,0.246,0.403,0.397,0.668,0.33c0,0,0.369-0.094,0.782-0.271
	c0.416-0.168,0.746-0.365,0.746-0.365c0.235-0.135,0.341-0.454,0.236-0.704l-0.535-1.295c-0.102-0.25-0.053-0.576,0.119-0.728
	c0.167-0.146,0.754-0.498,1.004-0.397l1.293,0.539c0.252,0.103,0.562-0.009,0.685-0.248l0.634-1.522
	c0.083-0.257-0.057-0.556-0.311-0.658l-1.293-0.535c-0.25-0.104-0.443-0.37-0.43-0.592c0.018-0.223,0.182-0.893,0.432-0.999
	l1.293-0.533c0.25-0.104,0.397-0.407,0.33-0.671c0,0-0.094-0.368-0.269-0.785C13.538,3.8,13.346,3.472,13.346,3.472z M8.016,9.453
	C6.656,10.017,5.104,9.375,4.54,8.014C3.976,6.656,4.623,5.104,5.979,4.54c1.357-0.567,2.913,0.08,3.475,1.438
	C10.018,7.337,9.373,8.893,8.016,9.453z"/>
<path fill="#FFFFFF" d="M7,75.001c-2.761,0-5,2.238-5,5s5,9,5,9s5-6.238,5-9S9.762,75.001,7,75.001z M7,82.001c-1.104,0-2-0.896-2-2
	s0.896-2,2-2s2,0.896,2,2S8.104,82.001,7,82.001z"/>
<path fill="#FFFFFF" d="M13,95.001h-2c0,0-1-4-4-4s-4,4-4,4H1l-1,7h14L13,95.001z M7,98.001c-0.552,0-1-0.447-1-1s0.448-1,1-1
	c0.553,0,1,0.447,1,1S7.553,98.001,7,98.001z M4,95.001c0,0,1-3,3-3s3,3,3,3H4z"/>
<g>
	<path fill="#FFFFFF" d="M7.094,113.615c0,0,1.189-1.077,2.378-3.23c1.189-2.154,0-5.385,0-5.385H3.528c0,0-1.188,3.23,0,5.385
		c1.063,1.927,2.377,3.23,2.377,3.23v4.308L3.491,119h6.018l-2.415-1.077V113.615z M4.167,109c-0.26-0.875,0.55-2.923,0.55-2.923
		h3.566c0,0,0.884,1.745,0.55,2.923C7.341,109.067,5.877,109.045,4.167,109z"/>
</g>
</svg>
