<?xml version="1.0" encoding="utf-8"?>
<!-- Generator: Adobe Illustrator 16.0.4, SVG Export Plug-In . SVG Version: 6.00 Build 0)  -->
<!DOCTYPE svg PUBLIC "-//W3C//DTD SVG 1.1//EN" "http://www.w3.org/Graphics/SVG/1.1/DTD/svg11.dtd">
<svg version="1.1" id="Icons" xmlns="http://www.w3.org/2000/svg" xmlns:xlink="http://www.w3.org/1999/xlink" x="0px" y="0px"
	 width="195px" height="59px" viewBox="76 100 195 59" enable-background="new 76 100 195 59" xml:space="preserve">
<rect id="Debug_BG" x="34" y="38" display="none" fill="#FF993F" width="246" height="178"/>
<rect x="156" y="116" display="none" fill="#FC7232" width="32" height="32"/>
<g id="Calendar_Icon">
	<path fill="#999999" d="M154,100v16h17v-16H154z M158,115h-3v-3h3V115z M158,111h-3v-3h3V111z M158,107h-3v-3h3V107z M162,115h-3
		v-3h3V115z M162,111h-3v-3h3V111z M162,107h-3v-3h3V107z M166,115h-3v-3h3V115z M166,111h-3v-3h3V111z M166,107h-3v-3h3V107z
		 M170,115h-3v-3h3V115z M170,111h-3v-3h3V111z M170,107h-3v-3h3V107z"/>
</g>
<g>
	<path fill="#FFFFFF" d="M99,100v30h30v-30H99z M125.95,121.932c-3.82,6.576-25.796,10.682-25.257-3.227
		c0.703-18.166,21.779-15.787,21.779-15.787s-9.297-0.695-15.018,4.568c-5.088,4.684-8.005,14.912,0.287,18.291
		c5.197,2.117,14.971-1.438,17.466-5.521c6.188-10.119-8.028-15.189-8.028-15.189S133.65,108.684,125.95,121.932z"/>
</g>
<g>
	<g>
		<path fill="#CCCCCC" d="M129,112h24l-12-12L129,112z"/>
	</g>
	<g>
		<path fill="#FFFFFF" d="M130,113h22l-11-11L130,113z"/>
	</g>
</g>
<g>
	<g>
		<path fill="#CCCCCC" d="M153,113h-24l12,12L153,113z"/>
	</g>
	<g>
		<path fill="#FFFFFF" d="M152,112h-22l11,11L152,112z"/>
	</g>
</g>
<g>
	<polygon id="Arrow_Down_Small_5_" fill="#CCCCCC" points="128,148 137,148 132.5,156 	"/>
	<polygon id="Arrow_Up_Small_3_" fill="#CCCCCC" points="147,156 138,156 142.5,148 	"/>
	<g id="Arrow_Right_Small_2_">
		<polygon fill="#999999" points="85,147 85,138 93,142.5 		"/>
	</g>
	<g id="Arrow_Left_Small_10_">
		<polygon fill="#999999" points="84,138 84,147 76,142.5 		"/>
	</g>
	<polygon id="Arrow_Down_Small_4_" fill="#999999" points="128,138 137,138 132.5,146 	"/>
	<polygon id="Arrow_Up_Small_2_" fill="#999999" points="147,146 138,146 142.5,138 	"/>
	<g id="Arrow_Left_Small_9_">
		<polygon fill="#999999" points="102,138 102,147 94,142.5 		"/>
		<polygon fill="#999999" points="110,138 110,147 102,142.5 		"/>
	</g>
	<g id="Arrow_Left_Small_8_">
		<polygon fill="#999999" points="119,147 119,138 127,142.5 		"/>
		<polygon fill="#999999" points="111,147 111,138 119,142.5 		"/>
	</g>
	<g id="Arrow_Right_Small_1_">
		<polygon fill="#CCCCCC" points="85,157 85,148 93,152.5 		"/>
	</g>
	<g id="Arrow_Left_Small_5_">
		<polygon fill="#CCCCCC" points="84,148 84,157 76,152.5 		"/>
	</g>
	<g id="Arrow_Left_Small_4_">
		<polygon fill="#CCCCCC" points="102,148 102,157 94,152.5 		"/>
		<polygon fill="#CCCCCC" points="110,148 110,157 102,152.5 		"/>
	</g>
	<g id="Arrow_Left_Small_3_">
		<polygon fill="#CCCCCC" points="119,157 119,148 127,152.5 		"/>
		<polygon fill="#CCCCCC" points="111,157 111,148 119,152.5 		"/>
	</g>
	<circle fill="#999999" cx="152" cy="142" r="4"/>
	<circle fill="#CCCCCC" cx="152" cy="152" r="4"/>
</g>
<path fill="#FFFFFF" d="M186.254,103.97c-0.157-0.268-0.52-0.391-0.805-0.271l-1.482,0.612c-0.285,0.114-0.659,0.06-0.827-0.14
	c-0.17-0.188-0.572-0.854-0.453-1.145l0.611-1.479c0.119-0.282-0.008-0.638-0.283-0.779l-1.742-0.724
	c-0.296-0.096-0.634,0.063-0.753,0.354l-0.607,1.478c-0.12,0.283-0.428,0.508-0.68,0.49c-0.253-0.02-1.02-0.207-1.141-0.49
	l-0.614-1.478c-0.117-0.287-0.461-0.457-0.76-0.381c0,0-0.422,0.109-0.895,0.312c-0.476,0.191-0.853,0.418-0.853,0.418
	c-0.271,0.152-0.396,0.521-0.271,0.808l0.611,1.479c0.119,0.281,0.062,0.656-0.136,0.826c-0.188,0.169-0.859,0.568-1.145,0.453
	l-1.481-0.612c-0.284-0.113-0.639,0.012-0.779,0.282l-0.725,1.739c-0.092,0.297,0.066,0.64,0.354,0.756l1.48,0.608
	c0.285,0.121,0.509,0.424,0.49,0.678c-0.017,0.254-0.208,1.021-0.494,1.142l-1.479,0.611c-0.285,0.112-0.455,0.463-0.377,0.765
	c0,0,0.11,0.42,0.312,0.896c0.192,0.479,0.417,0.854,0.417,0.854c0.152,0.271,0.521,0.394,0.806,0.271l1.481-0.613
	c0.282-0.113,0.654-0.062,0.824,0.133c0.168,0.191,0.57,0.863,0.455,1.148l-0.609,1.479c-0.12,0.282,0.009,0.644,0.277,0.78
	l1.743,0.725c0.295,0.097,0.639-0.062,0.754-0.354l0.613-1.479c0.118-0.28,0.422-0.508,0.676-0.487
	c0.251,0.021,1.021,0.207,1.142,0.491l0.609,1.479c0.119,0.279,0.463,0.455,0.765,0.377c0,0,0.421-0.107,0.895-0.312
	c0.478-0.188,0.854-0.417,0.854-0.417c0.269-0.152,0.388-0.52,0.271-0.805l-0.613-1.479c-0.115-0.283-0.06-0.656,0.138-0.83
	c0.19-0.168,0.859-0.566,1.146-0.453l1.479,0.613c0.287,0.117,0.64-0.008,0.778-0.283l0.726-1.737
	c0.095-0.293-0.063-0.637-0.354-0.752l-1.478-0.612c-0.287-0.117-0.508-0.424-0.49-0.676c0.02-0.254,0.207-1.021,0.492-1.144
	l1.478-0.607c0.287-0.119,0.455-0.469,0.377-0.77c0,0-0.105-0.42-0.307-0.895C186.474,104.345,186.254,103.97,186.254,103.97z
	 M180.162,110.803c-1.552,0.646-3.328-0.088-3.971-1.644c-0.646-1.553,0.094-3.327,1.645-3.97c1.551-0.646,3.329,0.092,3.97,1.645
	C182.45,108.386,181.713,110.162,180.162,110.803z"/>
<polygon fill="#999999" points="105,130 99,134 105,138 "/>
<polygon fill="#B9B9B9" points="188,100 192,105 196,100 "/>
<polygon fill="#999999" points="188,105 192,110 196,105 "/>
<polygon fill="#B9B9B9" points="196,115 192,110 188,115 "/>
<polygon fill="#999999" points="196,120 192,115 188,120 "/>
<g>
	<g>
		<circle fill="none" cx="169.915" cy="129.914" r="4.227"/>
		<path fill="#FFFFFF" d="M178.99,137.156l-1.988-1.986c-0.32-0.32-0.766-0.412-1.176-0.318l-1.274-1.27
			c0.798-1.01,1.277-2.279,1.277-3.664c0-3.27-2.647-5.914-5.914-5.914S164,126.65,164,129.916s2.648,5.912,5.915,5.912
			c1.405,0,2.694-0.49,3.708-1.312l1.27,1.271c-0.095,0.41-0.004,0.854,0.316,1.178l1.988,1.986c0.494,0.494,1.298,0.494,1.793,0
			C179.484,138.455,179.484,137.652,178.99,137.156z M169.915,134.141c-2.334,0-4.228-1.893-4.228-4.227s1.893-4.227,4.228-4.227
			c2.333,0,4.228,1.893,4.228,4.227S172.249,134.141,169.915,134.141z"/>
	</g>
	<circle opacity="0.4" fill="#FFFFFF" enable-background="new    " cx="169.915" cy="129.914" r="4.914"/>
</g>
<polygon fill="#444444" points="146,126.334 144.667,125 142,127.666 139.333,125 138,126.334 140.667,129 138,131.666 139.333,133 
	142,130.334 144.667,133 146,131.666 143.333,129 "/>
<polygon fill="#999999" points="137,126.334 135.667,125 133,127.666 130.333,125 129,126.334 131.667,129 129,131.666 130.333,133 
	133,130.334 135.667,133 137,131.666 134.333,129 "/>
<polygon fill="#999999" points="105,130 113,130 109,136 "/>
<polygon fill="#999999" points="121,136 113,136 117,130 "/>
<g>
	<g>
		<path fill="#999999" d="M90.99,113.152l-1.988-1.986c-0.32-0.32-0.766-0.412-1.176-0.318l-1.274-1.27
			c0.798-1.01,1.277-2.279,1.277-3.664c0-3.27-2.647-5.914-5.914-5.914c-3.267,0-5.915,2.646-5.915,5.914s2.648,5.914,5.915,5.914
			c1.405,0,2.694-0.492,3.708-1.312l1.27,1.271c-0.095,0.41-0.004,0.854,0.316,1.176l1.988,1.986c0.494,0.494,1.298,0.494,1.793,0
			C91.484,114.451,91.484,113.648,90.99,113.152z M81.915,110.137c-2.334,0-4.228-1.893-4.228-4.227s1.893-4.227,4.228-4.227
			c2.333,0,4.228,1.893,4.228,4.227S84.249,110.137,81.915,110.137z"/>
	</g>
	<circle opacity="0.4" fill="#999999" enable-background="new    " cx="81.915" cy="105.91" r="4.914"/>
</g>
<g opacity="0.6">
	<polygon opacity="0.2" enable-background="new    " points="96,118 94,116 91,119 88,116 86,118 89,121 86,124 88,126 91,123 
		94,126 96,124 93,121 	"/>
	<polygon fill="#FFFFFF" points="96,119 94,117 91,120 88,117 86,119 89,122 86,125 88,127 91,124 94,127 96,125 93,122 	"/>
</g>
<g>
	<polygon opacity="0.2" enable-background="new    " points="86,118 84,116 81,119 78,116 76,118 79,121 76,124 78,126 81,123 
		84,126 86,124 83,121 	"/>
	<polygon fill="#FFFFFF" points="86,119 84,117 81,120 78,117 76,119 79,122 76,125 78,127 81,124 84,127 86,125 83,122 	"/>
</g>
<rect x="202" y="100" fill="#444444" width="9" height="4"/>
<rect x="202" y="105" fill="#444444" width="9" height="4"/>
<rect x="202" y="110" fill="#444444" width="9" height="4"/>
<rect x="212" y="100" fill="#444444" width="4" height="4"/>
<rect x="217" y="100" fill="#444444" width="4" height="4"/>
<rect x="222" y="100" fill="#444444" width="4" height="4"/>
<rect x="212" y="105" fill="#444444" width="4" height="4"/>
<rect x="217" y="105" fill="#444444" width="4" height="4"/>
<rect x="222" y="105" fill="#444444" width="4" height="4"/>
<rect x="212" y="110" fill="#444444" width="4" height="4"/>
<rect x="217" y="110" fill="#444444" width="4" height="4"/>
<rect x="222" y="110" fill="#444444" width="4" height="4"/>
<rect x="227" y="100" fill="#444444" width="14" height="2"/>
<rect x="227" y="103" fill="#444444" width="14" height="2"/>
<rect x="227" y="106" fill="#444444" width="14" height="2"/>
<rect x="227" y="109" fill="#444444" width="14" height="2"/>
<rect x="227" y="112" fill="#444444" width="14" height="2"/>
<rect x="197" y="100" fill="#444444" width="4" height="4"/>
<rect x="197" y="105" fill="#444444" width="4" height="4"/>
<rect x="197" y="110" fill="#444444" width="4" height="4"/>
<g>
	<path fill="#FFFFFF" d="M205.51,125.307c-0.033,0.061-0.091,0.1-0.156,0.111c-0.017,0.002-0.033,0.004-0.052,0.004
		c-0.048,0-0.096-0.016-0.136-0.041l-2.721-1.82c-0.022-0.012-0.045-0.023-0.062-0.045c-0.046-0.047-0.072-0.105-0.072-0.174v-3.203
		c0-0.062,0.026-0.129,0.072-0.174c0.047-0.045,0.109-0.072,0.174-0.072h0.646c0.064,0,0.128,0.027,0.174,0.072
		s0.072,0.107,0.072,0.174v2.711l2.334,1.576c0.109,0.074,0.141,0.227,0.07,0.334L205.51,125.307z"/>
	<path fill="#FFFFFF" d="M202.252,116.588l-0.63-1.092c-0.366-0.633-1.406-0.734-2.918,0.139c-1.511,0.871-1.948,1.826-1.583,2.457
		l0.596,1.033C198.788,117.729,200.408,116.773,202.252,116.588z"/>
	<path fill="#FFFFFF" d="M208.1,119.098l0.58-1.006c0.364-0.631-0.074-1.586-1.584-2.457c-1.512-0.873-2.552-0.771-2.916-0.139
		l-0.63,1.088C205.396,116.762,207.021,117.707,208.1,119.098z"/>
	<path fill="#FFFFFF" d="M202.92,117.209c-3.259,0-5.9,2.639-5.9,5.895c0,3.26,2.644,5.896,5.9,5.896s5.898-2.639,5.898-5.896
		C208.818,119.848,206.178,117.209,202.92,117.209z M202.92,127.525c-2.439,0-4.425-1.982-4.425-4.426
		c0-2.438,1.983-4.422,4.425-4.422c2.438,0,4.424,1.979,4.424,4.422C207.344,125.543,205.357,127.525,202.92,127.525z"/>
</g>
<polygon fill="#FFFFFF" points="155,126.336 153.667,125.002 151,127.668 148.333,125.002 147,126.336 149.667,129.002 147,131.668 
	148.333,133 151,130.334 153.667,133 155,131.668 152.333,129.002 "/>
<g>
	<polygon fill="none" points="213,119 213,128 222,128 222,116 216,116 216,119 	"/>
	<g>
		<polygon fill="none" points="213,119 213,128 222,128 222,116 216,116 216,119 		"/>
		<g>
			<path fill="#FFFFFF" d="M216,115l-4,4v10h11v-14H216z M222,128h-9v-9h3v-3h6V128z"/>
		</g>
	</g>
	<rect x="214" y="121" fill="#FFFFFF" width="7" height="1"/>
	<rect x="214" y="123" fill="#FFFFFF" width="7" height="1"/>
	<rect x="214" y="125" fill="#FFFFFF" width="7" height="1"/>
</g>
<g>
	<polygon fill="none" points="228,119 228,128 237,128 237,116 231,116 231,119 	"/>
	<g>
		<g>
			<path fill="#FFFFFF" d="M237,126v2h-9v-9h3v-3h6v2l1-1v-2h-7l-4,4v10h11v-4L237,126z"/>
		</g>
	</g>
</g>
<g>
	<polygon fill="#FFFFFF" points="230,123 232,121 234,123 239,118 241,120 234,127 	"/>
</g>
<g>
	<path fill="#FFFFFF" d="M224,130h-10l-2,2v10h14v-10L224,130z M219,140.5l-3.5-3.5h2.5v-3h2v3h2.5L219,140.5z M214,132l1-1h8l1,1
		H214z"/>
</g>
<g>
	<path fill="#FFFFFF" d="M205.518,138.203L205.025,133c-0.059-0.91,0-0.885,0-1.281c0-0.539,0.14-0.961,0.418-1.266
		c0.279-0.303,0.646-0.453,1.103-0.453c0.552,0,0.92,0.193,1.106,0.58c0.186,0.389,0.328,0.477,0.328,1.205
		c0,0.43,0.045,0.771,0,1.215l-0.492,5.223c-0.045,0.574-0.147,1.016-0.295,1.318c-0.146,0.305-0.351,0.459-0.688,0.459
		c-0.346,0-0.653-0.148-0.788-0.443C205.582,139.26,205.576,138.809,205.518,138.203z M206.486,144
		c-0.391,0-0.731-0.129-1.023-0.387c-0.292-0.256-0.438-0.617-0.438-1.078c0-0.402,0.139-0.748,0.418-1.029
		c0.279-0.283,0.621-0.426,1.022-0.426c0.403,0,0.749,0.143,1.034,0.426c0.285,0.281,0.43,0.627,0.43,1.029
		c0,0.455-0.146,0.812-0.435,1.074C207.209,143.869,206.872,144,206.486,144z"/>
</g>
<g>
	<path fill="#FFFFFF" d="M198.518,138.203L198.025,133c-0.059-0.91,0-0.885,0-1.281c0-0.539,0.14-0.961,0.418-1.266
		c0.279-0.303,0.646-0.453,1.103-0.453c0.552,0,0.92,0.193,1.106,0.58c0.186,0.389,0.328,0.477,0.328,1.205
		c0,0.43,0.045,0.771,0,1.215l-0.492,5.223c-0.045,0.574-0.147,1.016-0.295,1.318c-0.146,0.305-0.351,0.459-0.688,0.459
		c-0.346,0-0.653-0.148-0.788-0.443C198.582,139.26,198.576,138.809,198.518,138.203z M199.486,144
		c-0.391,0-0.731-0.129-1.023-0.387c-0.292-0.256-0.438-0.617-0.438-1.078c0-0.402,0.139-0.748,0.418-1.029
		c0.279-0.283,0.621-0.426,1.022-0.426c0.403,0,0.749,0.143,1.034,0.426c0.285,0.281,0.43,0.627,0.43,1.029
		c0,0.455-0.146,0.812-0.435,1.074C200.209,143.869,199.872,144,199.486,144z"/>
</g>
<path fill="#FFFFFF" d="M212,145h3l3,5.074l3-5.074h3v12h-3v-8l-3,5l0,0l-3-5v8h-3V145z"/>
<path fill="#FFFFFF" d="M201.852,145h2.297l4.854,12h-3l-1-3h-4l-1,3h-3L201.852,145z M204.473,152.014L203,148l-1.537,4.014
	H204.473z"/>
<path fill="#FFFFFF" d="M234,130c-3.866,0-7,3.135-7,7s3.134,7,7,7s7-3.135,7-7S237.866,130,234,130z M233.285,132.287
	c0.189-0.191,0.425-0.287,0.705-0.287c0.283,0,0.523,0.096,0.718,0.287c0.194,0.189,0.292,0.428,0.292,0.705
	c0,0.279-0.098,0.518-0.292,0.713c-0.194,0.197-0.435,0.295-0.718,0.295c-0.275,0-0.51-0.098-0.702-0.295
	c-0.192-0.195-0.289-0.434-0.289-0.713C233,132.715,233.096,132.479,233.285,132.287z M236,141h-4v-1l0.16-0.242
	c0.363,0,0.607-0.064,0.73-0.199c0.121-0.133,0.107-0.08,0.107-0.559v-2c0-0.479,0.014-0.424-0.107-0.555
	c-0.123-0.131-0.367-0.193-0.73-0.193L232,136v-1h3v4c0,0.473,0.088,0.418,0.211,0.555c0.122,0.137,0.368,0.203,0.738,0.203L236,140
	V141z"/>
<rect x="-172" y="625" display="none" fill="#429700" width="14" height="14"/>
<g>
	<g>
		<path fill="#FFFFFF" d="M257.544,102.572c-0.85-1.415-2.238-1.415-3.088,0l-11.912,19.855C241.694,123.843,242.35,125,244,125h24
			c1.65,0,2.306-1.157,1.456-2.572L257.544,102.572z M257.133,122.766c-0.346,0.299-0.752,0.448-1.217,0.448
			c-0.471,0-0.881-0.148-1.234-0.444c-0.352-0.293-0.526-0.708-0.526-1.236c0-0.462,0.168-0.86,0.504-1.183
			c0.336-0.324,0.748-0.488,1.232-0.488c0.485,0,0.903,0.164,1.246,0.488c0.344,0.322,0.519,0.721,0.519,1.183
			C257.656,122.055,257.479,122.466,257.133,122.766z M257.42,113.598c-0.163,1.642-0.376,3.509-0.474,4.149c0,0,0,0-0.177,0.35
			c-0.179,0.349-0.423,0.525-0.832,0.525c-0.416,0-0.787-0.17-0.947-0.509c-0.164-0.34-0.164-0.34-0.164-0.34
			c-0.044-0.668-0.212-2.558-0.375-4.199v-0.002c-0.163-1.642-0.296-3.442-0.296-4.002c0,0,0,0,0-0.455
			c0-0.617,0.168-1.103,0.504-1.452c0.336-0.348,0.779-0.521,1.328-0.521c0.666,0,1.109,0.222,1.335,0.666
			c0.224,0.446,0.396,0.548,0.396,1.383c0,0.494,0,0.494,0,0.494c0,0.496-0.134,2.245-0.297,3.887L257.42,113.598z"/>
	</g>
</g>
<rect x="189" y="121" fill="#FFFFFF" width="7" height="2"/>
<rect x="194" y="121" fill="#FFFFFF" width="2" height="7"/>
<rect x="187.611" y="123.889" transform="matrix(0.7071 -0.7071 0.7071 0.7071 -32.042 172.4221)" fill="#FFFFFF" width="9" height="2"/>
</svg>
