<?xml version="1.0" encoding="utf-8"?>
<!-- Generator: Adobe Illustrator 16.0.4, SVG Export Plug-In . SVG Version: 6.00 Build 0)  -->
<!DOCTYPE svg PUBLIC "-//W3C//DTD SVG 1.1//EN" "http://www.w3.org/Graphics/SVG/1.1/DTD/svg11.dtd">
<svg version="1.1" id="Layer_1" xmlns="http://www.w3.org/2000/svg" xmlns:xlink="http://www.w3.org/1999/xlink" x="0px" y="0px"
	 width="190px" height="115px" viewBox="0 0 190 115" enable-background="new 0 0 190 115" xml:space="preserve">
<g>
	<g>
		<g>
			<path fill="#FFFFFF" d="M123.352,99.878c0.002,0.21-0.168,0.377-0.376,0.379l-1.325,0.013c-0.208,0.002-0.38-0.162-0.382-0.372
				l-0.068-7.304c-0.002-0.207-0.173-0.374-0.378-0.372l-1.398,0.013c-0.206,0.002-0.376-0.166-0.378-0.372l-0.008-0.896
				c-0.002-0.207,0.164-0.378,0.371-0.38l5.627-0.053c0.206-0.002,0.378,0.166,0.38,0.372l0.009,0.896
				c0.002,0.206-0.167,0.378-0.373,0.38l-1.399,0.013c-0.207,0.002-0.372,0.173-0.37,0.38L123.352,99.878z"/>
		</g>
		<g>
			<path fill="#FFFFFF" d="M128.027,98.165c-0.208,0.002-0.444,0.159-0.522,0.352l-0.567,1.358c-0.08,0.192-0.313,0.348-0.521,0.35
				l-1.441,0.014c-0.208,0.002-0.313-0.15-0.237-0.345l3.785-9.303c0.078-0.191,0.311-0.35,0.519-0.352l0.86-0.008
				c0.207-0.002,0.442,0.151,0.522,0.342l3.848,9.231c0.08,0.192-0.022,0.347-0.232,0.349l-1.467,0.014
				c-0.208,0.002-0.44-0.15-0.521-0.344l-0.552-1.342c-0.079-0.191-0.311-0.346-0.521-0.344L128.027,98.165z M129.536,93.431
				c-0.074-0.192-0.217-0.189-0.279,0.008l-0.913,2.82c-0.062,0.196,0.056,0.356,0.264,0.354l1.78-0.017
				c0.203-0.002,0.313-0.162,0.237-0.354L129.536,93.431z"/>
		</g>
		<g>
			<path fill="#FFFFFF" d="M137.472,98.097c0.002,0.209,0.174,0.377,0.381,0.375l2.188-0.021c0.209-0.002,0.378,0.165,0.38,0.373
				l0.009,0.894c0.002,0.209-0.164,0.378-0.373,0.38l-4.269,0.04c-0.207,0.002-0.379-0.163-0.381-0.373l-0.083-8.951
				c-0.002-0.207,0.166-0.378,0.372-0.38l1.325-0.014c0.209-0.002,0.38,0.167,0.382,0.373L137.472,98.097z"/>
		</g>
		<g>
			<path fill="#FFFFFF" d="M143.835,92.006c-0.208,0.002-0.375,0.172-0.372,0.38l0.013,1.384c0.002,0.205,0.172,0.374,0.38,0.372
				l2.559-0.023c0.205-0.002,0.378,0.166,0.38,0.372l0.008,0.895c0.002,0.207-0.167,0.379-0.372,0.381l-2.56,0.023
				c-0.208,0.002-0.374,0.174-0.372,0.38l0.018,1.872c0.002,0.209,0.172,0.376,0.38,0.374l2.686-0.025
				c0.206-0.002,0.377,0.166,0.379,0.374l0.009,0.894c0.002,0.209-0.167,0.377-0.373,0.379l-4.766,0.045
				c-0.206,0.002-0.376-0.164-0.378-0.373l-0.083-8.952c-0.002-0.206,0.164-0.378,0.37-0.38l4.767-0.044
				c0.205-0.002,0.377,0.166,0.379,0.372l0.009,0.897c0.002,0.205-0.168,0.378-0.373,0.379L143.835,92.006z"/>
		</g>
		<g>
			<path fill="#FFFFFF" d="M148.625,90.432c-0.002-0.208,0.164-0.378,0.372-0.38l0.749-0.007c0.206-0.002,0.485,0.126,0.617,0.283
				l5.196,6.156c0.131,0.157,0.267,0.118,0.265-0.089l-0.054-5.774c-0.002-0.207,0.166-0.378,0.374-0.38l1.326-0.012
				c0.208-0.002,0.379,0.165,0.381,0.372l0.085,9.146c0.002,0.207-0.164,0.378-0.373,0.38l-0.747,0.007
				c-0.208,0.002-0.485-0.126-0.62-0.285l-5.194-6.155c-0.133-0.156-0.268-0.118-0.266,0.091l0.055,5.836
				c0.002,0.209-0.167,0.378-0.375,0.38l-1.325,0.012c-0.208,0.002-0.378-0.163-0.38-0.372L148.625,90.432z"/>
		</g>
		<g>
			<path fill="#FFFFFF" d="M163.271,99.503c0.002,0.21-0.164,0.378-0.372,0.38l-1.328,0.013c-0.207,0.002-0.377-0.163-0.379-0.373
				l-0.068-7.303c-0.002-0.207-0.173-0.375-0.382-0.373l-1.397,0.014c-0.205,0.002-0.376-0.167-0.378-0.373l-0.008-0.896
				c-0.002-0.207,0.165-0.377,0.37-0.379l5.63-0.053c0.208-0.002,0.377,0.165,0.379,0.372l0.009,0.896
				c0.002,0.206-0.165,0.378-0.373,0.38l-1.396,0.013c-0.207,0.002-0.377,0.173-0.375,0.38L163.271,99.503z"/>
		</g>
		<g>
			<path fill="#FFFFFF" d="M122.551,110.767c-0.208,0.002-0.444,0.161-0.522,0.351l-0.568,1.36
				c-0.079,0.189-0.314,0.349-0.521,0.351l-1.441,0.014c-0.208,0.002-0.312-0.154-0.233-0.346l3.782-9.305
				c0.079-0.19,0.312-0.35,0.519-0.352l0.857-0.008c0.21-0.002,0.445,0.153,0.523,0.344l3.85,9.23c0.08,0.19-0.021,0.349-0.23,0.351
				l-1.469,0.014c-0.207,0.002-0.44-0.153-0.521-0.344l-0.553-1.344c-0.078-0.19-0.312-0.346-0.52-0.344L122.551,110.767z
				 M124.06,106.032c-0.074-0.192-0.217-0.188-0.279,0.008l-0.91,2.82c-0.063,0.197,0.052,0.356,0.259,0.354l1.781-0.017
				c0.204-0.002,0.316-0.161,0.239-0.354L124.06,106.032z"/>
		</g>
		<g>
			<path fill="#FFFFFF" d="M138.365,107.503c0.207-0.002,0.372,0.218,0.374,0.43c0.022,2.427-1.624,5.002-4.799,5.031
				c-3.111,0.029-5.101-2.345-5.127-5.025c-0.025-2.764,1.975-5.166,5.159-5.196c1.652-0.016,3.033,0.628,3.999,1.904
				c0.157,0.202,0.045,0.471-0.187,0.588c-0.232,0.115-0.972,0.479-0.972,0.479c-0.186,0.095-0.449,0.041-0.585-0.112
				c0,0-0.852-1.198-2.298-1.185c-2.008,0.019-2.98,1.893-2.966,3.501c0.016,1.61,1.036,3.391,3.045,3.372
				c1.167-0.011,2.155-0.847,2.37-1.865c0.024-0.118-0.089-0.359-0.383-0.356c-0.292,0.003-1.461,0.014-1.461,0.014
				c-0.207,0.003-0.379-0.164-0.381-0.372l-0.008-0.791c-0.002-0.207,0.167-0.378,0.375-0.38L138.365,107.503z"/>
		</g>
		<g>
			<path fill="#FFFFFF" d="M142.562,104.567c-0.208,0.002-0.375,0.175-0.373,0.38l0.013,1.382c0.002,0.21,0.173,0.376,0.38,0.374
				l2.556-0.024c0.209-0.002,0.378,0.166,0.38,0.373l0.009,0.896c0.002,0.207-0.164,0.377-0.373,0.379l-2.556,0.024
				c-0.207,0.003-0.374,0.172-0.372,0.381l0.018,1.872c0.002,0.207,0.172,0.375,0.379,0.373l2.686-0.025
				c0.207-0.002,0.377,0.166,0.379,0.374l0.009,0.894c0.002,0.208-0.165,0.378-0.372,0.38l-4.766,0.045
				c-0.207,0.002-0.379-0.165-0.381-0.373l-0.084-8.952c-0.002-0.206,0.167-0.378,0.373-0.38l4.766-0.045
				c0.208-0.002,0.377,0.167,0.379,0.373l0.009,0.896c0.002,0.206-0.164,0.377-0.372,0.379L142.562,104.567z"/>
		</g>
		<g>
			<path fill="#FFFFFF" d="M147.349,102.995c-0.002-0.21,0.168-0.38,0.374-0.382l0.747-0.007c0.209-0.002,0.486,0.126,0.618,0.283
				l5.195,6.156c0.134,0.16,0.252,0.289,0.259,0.288c0.007,0,0.011-0.17,0.009-0.376l-0.054-5.774
				c-0.002-0.205,0.165-0.378,0.372-0.38l1.327-0.013c0.208-0.002,0.378,0.168,0.38,0.373l0.086,9.145
				c0.002,0.209-0.165,0.379-0.372,0.381l-0.747,0.007c-0.207,0.002-0.486-0.124-0.619-0.284l-5.194-6.154
				c-0.134-0.158-0.25-0.288-0.258-0.288s-0.012,0.17-0.01,0.376l0.055,5.839c0.002,0.208-0.165,0.377-0.374,0.379l-1.326,0.013
				c-0.206,0.002-0.38-0.164-0.382-0.372L147.349,102.995z"/>
		</g>
		<g>
			<path fill="#FFFFFF" d="M164.965,104.957c-0.56-0.441-1.28-0.692-2.007-0.686c-1.996,0.019-3.125,1.706-3.109,3.377
				c0.016,1.636,1.22,3.259,3.157,3.241c0.729-0.007,1.452-0.297,2.007-0.736c0.123-0.099,0.347-0.021,0.349,0.155
				c0.001,0.175,0.013,1.404,0.013,1.404c0.002,0.207-0.153,0.436-0.349,0.511c0,0-0.968,0.458-2.061,0.468
				c-2.997,0.028-5.242-2.307-5.268-4.984c-0.025-2.755,2.088-5.207,5.216-5.236c1.062-0.01,2.025,0.42,2.025,0.42
				c0.196,0.068,0.355,0.293,0.357,0.501c0,0,0.013,1.268,0.014,1.409C165.311,104.941,165.089,105.055,164.965,104.957z"/>
		</g>
		<g>
			<path fill="#FFFFFF" d="M165.857,103.021c-0.113-0.175-0.035-0.319,0.172-0.321l1.667-0.016c0.205-0.002,0.457,0.146,0.561,0.325
				l1.528,2.697c0.102,0.181,0.271,0.185,0.379,0.006l1.622-2.743c0.104-0.179,0.358-0.326,0.565-0.328l1.683-0.016
				c0.208-0.002,0.288,0.14,0.177,0.316l-2.918,4.645c-0.11,0.174-0.2,0.487-0.198,0.694l0.035,3.701
				c0.002,0.208-0.164,0.377-0.371,0.379l-1.327,0.013c-0.207,0.002-0.38-0.164-0.382-0.372l-0.035-3.701
				c-0.002-0.207-0.094-0.519-0.206-0.693L165.857,103.021z"/>
		</g>
		<g>
			<path fill="#FFFFFF" d="M121.794,68.326c-0.206,0.002-0.375,0.175-0.373,0.38l0.008,0.871c0.002,0.207,0.174,0.375,0.38,0.373
				l2.093-0.021c0.206-0.002,0.378,0.166,0.38,0.373l0.013,1.383c0.002,0.208-0.166,0.38-0.372,0.382l-2.093,0.02
				c-0.206,0.002-0.375,0.171-0.373,0.38l0.009,0.92c0.002,0.207,0.174,0.374,0.38,0.372l2.248-0.021
				c0.205-0.002,0.375,0.167,0.377,0.375l0.013,1.384c0.002,0.207-0.165,0.377-0.37,0.379l-4.771,0.045
				c-0.208,0.002-0.378-0.165-0.38-0.372l-0.085-8.954c-0.002-0.205,0.165-0.378,0.374-0.38l4.77-0.044
				c0.206-0.002,0.376,0.167,0.378,0.372l0.013,1.384c0.002,0.21-0.164,0.378-0.37,0.38L121.794,68.326z"/>
		</g>
		<g>
			<path fill="#FFFFFF" d="M132.795,68.886c-0.496-0.394-1.132-0.6-1.778-0.594c-1.547,0.015-2.577,1.209-2.562,2.715
				c0.015,1.533,1.08,2.629,2.65,2.614c0.618-0.006,1.234-0.236,1.723-0.618c0.164-0.127,0.446-0.11,0.448,0.149
				c0.003,0.264,0.02,2.066,0.02,2.066c0.002,0.207-0.158,0.429-0.354,0.493c0,0-1.081,0.348-1.862,0.355
				c-1.354,0.013-2.646-0.49-3.657-1.396c-1.078-0.955-1.58-2.212-1.594-3.653c-0.013-1.324,0.479-2.605,1.398-3.565
				c0.94-0.987,2.312-1.593,3.678-1.605c0.812-0.008,1.949,0.354,1.949,0.354c0.197,0.062,0.359,0.282,0.361,0.49
				c0,0,0.019,1.771,0.02,1.96C133.235,68.838,132.962,69.018,132.795,68.886z"/>
		</g>
		<g>
			<path fill="#FFFFFF" d="M140.91,69.757c0.206-0.002,0.374-0.171,0.372-0.379l-0.029-2.993c-0.002-0.206,0.167-0.378,0.374-0.38
				l1.77-0.017c0.208-0.002,0.38,0.167,0.382,0.373l0.084,8.952c0.002,0.208-0.167,0.378-0.374,0.38l-1.769,0.017
				c-0.21,0.002-0.38-0.165-0.382-0.373l-0.03-3.223c-0.002-0.209-0.173-0.377-0.379-0.375l-2.89,0.027
				c-0.209,0.002-0.376,0.172-0.374,0.382l0.03,3.223c0.002,0.208-0.165,0.378-0.371,0.38l-1.771,0.017
				c-0.208,0.002-0.378-0.165-0.38-0.373l-0.084-8.952c-0.002-0.206,0.165-0.378,0.373-0.38l1.771-0.017
				c0.207-0.002,0.376,0.167,0.379,0.373l0.028,2.993c0.002,0.208,0.172,0.374,0.381,0.372L140.91,69.757z"/>
		</g>
		<g>
			<path fill="#FFFFFF" d="M155.512,70.546c0.03,3.143-2.203,5.379-5.317,5.408c-3.117,0.028-5.388-2.165-5.417-5.308
				c-0.027-2.935,2.526-5.016,5.32-5.042C152.891,65.578,155.483,67.612,155.512,70.546z M147.402,70.636
				c0.016,1.674,1.265,2.884,2.77,2.87c1.504-0.015,2.73-1.248,2.715-2.921c-0.013-1.338-1.262-2.55-2.767-2.536
				S147.39,69.298,147.402,70.636z"/>
		</g>
		<g>
			<path fill="#FFFFFF" d="M121.578,85.378c0.002,0.208,0.172,0.374,0.38,0.372l2.27-0.021c0.207-0.002,0.379,0.166,0.381,0.375
				l0.013,1.382c0.002,0.208-0.166,0.38-0.373,0.383l-4.794,0.044c-0.209,0.002-0.379-0.167-0.381-0.374l-0.083-8.952
				c-0.002-0.207,0.164-0.379,0.373-0.381l1.77-0.017c0.209-0.002,0.379,0.166,0.381,0.373L121.578,85.378z"/>
		</g>
		<g>
			<path fill="#FFFFFF" d="M135.966,82.724c0.029,3.14-2.199,5.374-5.316,5.403c-3.114,0.029-5.389-2.163-5.418-5.302
				c-0.027-2.935,2.528-5.02,5.321-5.045C133.346,77.754,135.938,79.789,135.966,82.724z M127.857,82.812
				c0.016,1.675,1.264,2.886,2.769,2.871c1.506-0.015,2.731-1.248,2.716-2.923c-0.014-1.339-1.262-2.548-2.767-2.533
				C129.07,80.241,127.845,81.474,127.857,82.812z"/>
		</g>
		<g>
			<path fill="#FFFFFF" d="M149.144,85.947c-0.206,0.002-0.437,0.161-0.51,0.355l-0.383,0.99c-0.075,0.192-0.304,0.354-0.512,0.355
				l-1.926,0.018c-0.207,0.002-0.318-0.154-0.244-0.351l3.378-9.034c0.071-0.194,0.3-0.355,0.51-0.357l2.001-0.019
				c0.209-0.002,0.437,0.156,0.513,0.35l3.473,8.968c0.078,0.194-0.031,0.354-0.238,0.355l-1.938,0.019
				c-0.207,0.002-0.437-0.154-0.513-0.349l-0.376-0.979c-0.073-0.192-0.304-0.35-0.51-0.348L149.144,85.947z M150.607,81.271
				c-0.067-0.196-0.2-0.195-0.266,0l-0.779,2.387c-0.064,0.195,0.051,0.355,0.259,0.354l1.346-0.013
				c0.208-0.002,0.32-0.165,0.254-0.36L150.607,81.271z"/>
		</g>
		<g>
			<path fill="#FFFFFF" d="M159.771,87.157c0.002,0.207-0.169,0.38-0.375,0.382l-1.769,0.017c-0.207,0.002-0.38-0.167-0.382-0.374
				l-0.064-6.816c-0.002-0.208-0.171-0.374-0.38-0.372l-1.332,0.012c-0.205,0.002-0.38-0.164-0.382-0.374l-0.013-1.383
				c-0.002-0.206,0.17-0.379,0.375-0.381l5.941-0.056c0.206-0.002,0.38,0.167,0.382,0.374l0.013,1.383
				c0.002,0.209-0.168,0.379-0.374,0.381l-1.332,0.013c-0.208,0.002-0.374,0.172-0.372,0.38L159.771,87.157z"/>
		</g>
		<g>
			<path fill="#FFFFFF" d="M165.609,87.102c0.002,0.208-0.164,0.38-0.373,0.382l-1.771,0.017c-0.206,0.002-0.379-0.166-0.381-0.374
				l-0.083-8.952c-0.002-0.207,0.166-0.378,0.373-0.38l1.771-0.017c0.208-0.002,0.379,0.166,0.381,0.373L165.609,87.102z"/>
		</g>
		<g>
			<path fill="#FFFFFF" d="M177.775,82.332c0.029,3.14-2.2,5.374-5.312,5.403c-3.117,0.029-5.39-2.164-5.419-5.302
				c-0.027-2.935,2.524-5.02,5.322-5.046C175.159,77.362,177.748,79.397,177.775,82.332z M169.669,82.42
				c0.016,1.675,1.263,2.886,2.771,2.871c1.505-0.014,2.729-1.247,2.714-2.923c-0.013-1.338-1.26-2.548-2.765-2.533
				C170.879,79.85,169.656,81.082,169.669,82.42z"/>
		</g>
		<g>
			<path fill="#FFFFFF" d="M179.225,78.022c-0.002-0.207,0.168-0.379,0.373-0.381l1.771-0.018c0.208-0.002,0.481,0.131,0.61,0.292
				l4.207,5.301c0.13,0.162,0.259,0.127,0.257-0.08l-0.048-5.183c-0.002-0.206,0.164-0.378,0.372-0.38l1.771-0.017
				c0.207-0.002,0.378,0.167,0.38,0.373L189,86.884c0.002,0.207-0.164,0.379-0.372,0.381l-1.771,0.017
				c-0.207,0.002-0.479-0.129-0.609-0.293l-4.209-5.312c-0.128-0.163-0.257-0.128-0.255,0.081l0.049,5.193
				c0.002,0.208-0.167,0.38-0.375,0.382l-1.77,0.017c-0.206,0.002-0.378-0.167-0.38-0.375L179.225,78.022z"/>
		</g>
		<path fill="#FFFFFF" d="M143.935,80.773c-0.496-0.395-1.133-0.6-1.779-0.594c-1.544,0.016-2.578,1.209-2.563,2.716
			c0.015,1.529,1.081,2.628,2.651,2.613c0.618-0.006,1.233-0.235,1.724-0.619c0.162-0.127,0.446-0.111,0.449,0.152
			c0.002,0.26,0.02,2.064,0.02,2.064c0.002,0.208-0.16,0.431-0.357,0.492c0,0-1.078,0.35-1.861,0.357
			c-1.353,0.012-2.646-0.491-3.658-1.395c-1.077-0.957-1.578-2.214-1.592-3.654c-0.012-1.326,0.479-2.605,1.396-3.566
			c0.943-0.986,2.315-1.592,3.679-1.604c0.812-0.008,1.949,0.353,1.949,0.353c0.198,0.062,0.362,0.284,0.364,0.49
			c0,0,0.017,1.773,0.018,1.96C144.375,80.727,144.1,80.903,143.935,80.773z"/>
	</g>
	<path fill="#FFFFFF" d="M111.853,3.507c0.692,0,1.253-0.561,1.253-1.253S112.545,1,111.853,1c-9.948,0-19.292,2.616-27.399,7.18
		C76.346,3.616,67.002,1,57.054,1C26.145,1,1,26.145,1,57.053c0,30.907,25.145,56.053,56.054,56.053
		c9.948,0,19.292-2.617,27.399-7.181c8.108,4.563,17.451,7.181,27.398,7.181c0.692,0,1.254-0.562,1.254-1.254
		s-0.562-1.253-1.254-1.253c-8.988,0-17.458-2.236-24.903-6.166c2.835-1.796,5.505-3.831,7.968-6.092
		c5.226,2.152,10.943,3.348,16.937,3.348c0.692,0,1.253-0.561,1.253-1.253s-0.561-1.254-1.253-1.254
		c-5.265,0-10.304-0.979-14.954-2.752c2.098-2.123,4.02-4.416,5.76-6.85c2.695,0.699,5.521,1.072,8.432,1.072
		c0.692,0,1.253-0.561,1.253-1.253s-0.561-1.254-1.253-1.254c-2.38,0-4.694-0.278-6.922-0.786c1.549-2.399,2.92-4.923,4.093-7.555
		c0.933,0.114,1.872,0.192,2.827,0.192h0.002c0.692,0,1.253-0.562,1.253-1.253c0-0.692-0.561-1.254-1.253-1.254h-0.001
		c-0.613,0-1.22-0.036-1.823-0.089c2.469-6.312,3.84-13.171,3.84-20.347c0-7.177-1.37-14.034-3.839-20.347
		c0.603-0.053,1.208-0.092,1.824-0.092c0.692,0,1.253-0.561,1.253-1.253s-0.561-1.253-1.253-1.253c-0.961,0-1.905,0.066-2.835,0.181
		c-1.174-2.63-2.543-5.151-4.092-7.549c2.247-0.509,4.565-0.78,6.925-0.78h0.001c0.693,0,1.254-0.561,1.254-1.253
		c0-0.692-0.561-1.253-1.253-1.253h-0.002c-2.885,0-5.712,0.366-8.434,1.066c-1.743-2.437-3.669-4.733-5.771-6.859
		c4.719-1.791,9.77-2.737,14.968-2.737c0.692,0,1.253-0.561,1.253-1.253c0-0.692-0.561-1.253-1.253-1.253c-0.001,0-0.001,0-0.001,0
		c-5.913,0-11.649,1.145-16.958,3.325c-2.456-2.252-5.118-4.279-7.945-6.07C94.393,5.743,102.865,3.507,111.853,3.507z
		 M57.054,110.599c-29.526,0-53.547-24.021-53.547-53.546c0-29.525,24.021-53.546,53.547-53.546c8.988,0,17.458,2.236,24.904,6.166
		c-2.836,1.796-5.505,3.832-7.969,6.092c-5.225-2.152-10.942-3.347-16.935-3.347c-24.613,0-44.637,20.023-44.638,44.636
		c0,24.612,20.024,44.635,44.637,44.636c5.992,0,11.71-1.195,16.936-3.347c2.463,2.26,5.133,4.295,7.969,6.091
		C74.513,108.362,66.042,110.599,57.054,110.599z M68.624,88.598c2.857-1.05,5.527-2.486,7.962-4.232
		c1.761,2.269,3.734,4.361,5.891,6.252c-2.458,1.866-5.129,3.464-7.965,4.762C72.366,93.287,70.396,91.021,68.624,88.598z
		 M72.047,43.212c3.368,3.646,5.444,8.499,5.444,13.842c0,5.333-2.07,10.178-5.426,13.821c-1.51-4.333-2.341-8.981-2.341-13.822
		C69.724,52.267,70.523,47.605,72.047,43.212z M67.731,50.261c-1.784-2.795-4.627-4.847-7.966-5.578
		c0.604-2.545,1.391-5.019,2.344-7.41c2.962,0.759,5.675,2.144,7.963,4.038C68.988,44.191,68.198,47.185,67.731,50.261z
		 M56.739,67.2c-5.458-0.17-9.849-4.651-9.849-10.147c0-2.715,1.058-5.267,2.977-7.186c1.844-1.844,4.275-2.882,6.872-2.961
		c-0.605,3.293-0.938,6.681-0.938,10.147S56.133,63.906,56.739,67.2z M58.307,57.053c0-3.39,0.331-6.702,0.936-9.919
		c4.553,1.005,7.974,5.067,7.974,9.919c0,4.853-3.419,8.915-7.974,9.919C58.638,63.756,58.307,60.443,58.307,57.053z M57.26,44.394
		c-0.07-0.002-0.137-0.011-0.207-0.011c-6.986,0-12.669,5.683-12.669,12.669c0,6.984,5.684,12.669,12.671,12.67
		c0.069,0,0.137-0.01,0.206-0.011c0.605,2.608,1.39,5.146,2.346,7.603c-0.838,0.105-1.686,0.177-2.551,0.177
		c-11.271-0.001-20.439-9.17-20.439-20.438c0-11.269,9.169-20.438,20.439-20.438c0.865,0,1.713,0.071,2.551,0.177
		C58.65,39.248,57.865,41.786,57.26,44.394z M59.765,69.423c3.34-0.731,6.184-2.784,7.968-5.579
		c0.474,3.096,1.275,6.084,2.354,8.938c-2.291,1.9-5.009,3.291-7.978,4.051C61.156,74.441,60.37,71.968,59.765,69.423z
		 M78.496,65.206c0.859,3.433,2.249,6.656,4.075,9.582c-1.561,2.238-3.408,4.263-5.488,6.021c-1.572-2.294-2.927-4.748-4.026-7.336
		C75.425,71.164,77.296,68.35,78.496,65.206z M79.998,57.054c0-5.481,1.417-10.742,4.062-15.377
		c2.595,4.539,4.086,9.785,4.086,15.377c0,5.583-1.488,10.823-4.076,15.356C81.484,67.877,79.998,62.638,79.998,57.054z
		 M78.488,48.88c-1.203-3.142-3.076-5.954-5.445-8.259c1.087-2.565,2.433-5.021,4.023-7.337c2.083,1.755,3.93,3.78,5.493,6.019
		C80.707,42.268,79.331,45.491,78.488,48.88z M71.063,38.901c-2.336-1.807-5.027-3.172-7.951-3.974
		c1.156-2.538,2.5-4.972,4.023-7.279c2.86,0.984,5.531,2.373,7.948,4.099C73.517,34.012,72.174,36.406,71.063,38.901z
		 M60.606,34.384c-1.157-0.18-2.344-0.276-3.552-0.276c-12.653,0-22.946,10.293-22.946,22.945c0,12.651,10.293,22.944,22.946,22.945
		c1.208,0,2.395-0.096,3.552-0.276c1.157,2.605,2.508,5.104,4.032,7.484c-2.428,0.61-4.969,0.939-7.586,0.939
		c-8.304,0-16.113-3.234-21.985-9.107c-5.873-5.872-9.107-13.68-9.107-21.985c0-17.144,13.949-31.093,31.094-31.093
		c2.616,0,5.156,0.329,7.584,0.94C63.114,29.28,61.764,31.778,60.606,34.384z M63.112,79.18c2.933-0.804,5.63-2.176,7.97-3.99
		c1.124,2.517,2.471,4.911,4.021,7.156c-2.421,1.733-5.1,3.127-7.967,4.113C65.614,84.15,64.269,81.718,63.112,79.18z
		 M78.569,82.835c2.057-1.72,3.906-3.679,5.502-5.836c1.717,2.318,3.725,4.406,5.968,6.215c-1.674,2.106-3.546,4.049-5.586,5.801
		C82.291,87.158,80.319,85.088,78.569,82.835z M85.572,74.788c1.828-2.93,3.219-6.157,4.079-9.594
		c1.136,2.994,2.882,5.749,5.215,8.083c0.244,0.243,0.508,0.458,0.761,0.689c-1.126,2.556-2.498,4.979-4.087,7.24
		C89.262,79.359,87.253,77.197,85.572,74.788z M96.631,71.497c-3.854-3.859-5.978-8.988-5.978-14.443
		c0-5.629,2.288-10.734,5.981-14.433c1.648,4.503,2.548,9.365,2.548,14.432C99.183,62.125,98.281,66.989,96.631,71.497z
		 M89.648,48.902c-0.861-3.439-2.254-6.668-4.085-9.599c1.047-1.497,2.224-2.918,3.543-4.237c0.774-0.774,1.585-1.5,2.424-2.183
		c1.59,2.262,2.964,4.685,4.091,7.242C92.999,42.524,90.937,45.524,89.648,48.902z M87.333,33.294
		c-1.193,1.193-2.287,2.462-3.275,3.794c-1.598-2.156-3.448-4.114-5.505-5.832c1.081-1.389,2.245-2.728,3.51-3.993
		c0.766-0.766,1.563-1.488,2.375-2.187c2.042,1.751,3.914,3.693,5.59,5.8C89.095,31.631,88.194,32.435,87.333,33.294z
		 M80.291,25.491c-1.343,1.342-2.578,2.761-3.724,4.236c-2.429-1.74-5.094-3.171-7.943-4.22c1.772-2.422,3.743-4.689,5.889-6.78
		c2.83,1.293,5.495,2.886,7.948,4.747C81.721,24.123,80.993,24.789,80.291,25.491z M66.119,24.706
		c-2.887-0.81-5.924-1.252-9.065-1.252c-18.527,0-33.601,15.072-33.601,33.599c-0.001,8.975,3.495,17.412,9.841,23.759
		c6.347,6.347,14.784,9.841,23.758,9.841c3.142,0,6.18-0.442,9.066-1.253c1.773,2.501,3.74,4.855,5.889,7.03
		c-4.65,1.772-9.689,2.752-14.954,2.752c-23.231-0.001-42.13-18.899-42.13-42.129c0.001-23.23,18.901-42.129,42.131-42.129
		c5.265,0,10.303,0.979,14.953,2.751C69.859,19.85,67.893,22.205,66.119,24.706z M84.453,103.034
		c-2.831-1.693-5.489-3.644-7.951-5.813c2.832-1.376,5.491-3.051,7.951-4.971c2.46,1.92,5.118,3.594,7.95,4.971
		C89.94,99.391,87.283,101.341,84.453,103.034z M94.394,95.378c-2.837-1.298-5.507-2.895-7.965-4.761
		c2.046-1.793,3.927-3.769,5.618-5.903c2.476,1.71,5.192,3.093,8.086,4.095C98.4,91.152,96.478,93.347,94.394,95.378z
		 M101.634,86.671c-2.904-0.929-5.622-2.273-8.087-3.964c1.57-2.226,2.939-4.599,4.086-7.097c2.437,1.774,5.173,3.035,8.087,3.731
		C104.544,81.898,103.181,84.35,101.634,86.671z M98.64,73.238c1.167-2.987,2.032-6.124,2.532-9.382
		c1.766,2.774,4.586,4.826,7.969,5.563c-0.619,2.609-1.429,5.145-2.415,7.592C103.785,76.375,101.038,75.091,98.64,73.238z
		 M110.599,57.054c0,3.389-0.33,6.701-0.936,9.916c-4.641-1.017-7.973-5.122-7.974-9.917c0-4.758,3.345-8.903,7.972-9.922
		C110.268,50.35,110.599,53.663,110.599,57.054z M109.14,44.68c-3.375,0.737-6.195,2.81-7.964,5.59
		c-0.499-3.26-1.365-6.401-2.531-9.39c2.347-1.811,5.088-3.129,8.081-3.784C107.712,39.542,108.521,42.074,109.14,44.68z
		 M105.714,34.751c-2.958,0.713-5.693,2-8.083,3.737c-1.149-2.5-2.52-4.875-4.093-7.102c2.5-1.717,5.221-3.046,8.09-3.959
		C103.175,29.748,104.538,32.197,105.714,34.751z M100.123,25.284c-2.862,0.986-5.577,2.36-8.087,4.095
		c-1.692-2.134-3.574-4.11-5.623-5.904c2.486-1.891,5.153-3.485,7.96-4.766C96.461,20.741,98.387,22.937,100.123,25.284z
		 M92.387,16.87c-2.803,1.361-5.465,3.025-7.952,4.97c-2.455-1.914-5.107-3.583-7.931-4.956c2.461-2.169,5.119-4.12,7.95-5.812
		C87.277,12.761,89.929,14.707,92.387,16.87z"/>
</g>
</svg>
